<mxfile host="app.diagrams.net" modified="2022-12-19T16:20:28.534Z" agent="5.0 (Windows NT 10.0; Win64; x64) AppleWebKit/537.36 (KHTML, like Gecko) Chrome/108.0.0.0 Safari/537.36" version="20.6.0" etag="Xn9gcLYsM0grt4Q-u2bV" type="github">
  <diagram id="Ob1fbTuoGrBigVkElsvX" name="Page-1">
    <mxGraphModel dx="2307" dy="1287" grid="0" gridSize="10" guides="1" tooltips="1" connect="1" arrows="1" fold="1" page="1" pageScale="1" pageWidth="850" pageHeight="1100" math="0" shadow="0">
      <root>
        <mxCell id="0" />
        <mxCell id="1" parent="0" />
        <mxCell id="P8y5TRSWgkhWpiHVSNIU-1" value="" style="shape=cylinder3;whiteSpace=wrap;html=1;boundedLbl=1;backgroundOutline=1;size=15;fillColor=#dae8fc;strokeColor=#6c8ebf;" vertex="1" parent="1">
          <mxGeometry x="21" y="223" width="110" height="170" as="geometry" />
        </mxCell>
        <mxCell id="P8y5TRSWgkhWpiHVSNIU-2" value="Borrower&lt;br style=&quot;font-size: 17px;&quot;&gt;Data" style="text;html=1;strokeColor=none;fillColor=none;align=center;verticalAlign=middle;whiteSpace=wrap;rounded=0;fontSize=17;fontStyle=0" vertex="1" parent="1">
          <mxGeometry x="46" y="303" width="62" height="30" as="geometry" />
        </mxCell>
        <mxCell id="P8y5TRSWgkhWpiHVSNIU-5" value="" style="endArrow=classic;html=1;rounded=0;fontSize=18;strokeWidth=3;entryX=0;entryY=0.5;entryDx=0;entryDy=0;" edge="1" parent="1" target="P8y5TRSWgkhWpiHVSNIU-6">
          <mxGeometry width="50" height="50" relative="1" as="geometry">
            <mxPoint x="131" y="263" as="sourcePoint" />
            <mxPoint x="191" y="263" as="targetPoint" />
          </mxGeometry>
        </mxCell>
        <mxCell id="P8y5TRSWgkhWpiHVSNIU-6" value="" style="rounded=1;whiteSpace=wrap;html=1;fontSize=18;fillColor=#d5e8d4;strokeColor=#82b366;opacity=40;" vertex="1" parent="1">
          <mxGeometry x="194" y="137" width="295" height="130" as="geometry" />
        </mxCell>
        <mxCell id="P8y5TRSWgkhWpiHVSNIU-7" value="RF" style="ellipse;whiteSpace=wrap;html=1;aspect=fixed;fontSize=24;opacity=40;fillColor=#f8cecc;strokeColor=#b85450;" vertex="1" parent="1">
          <mxGeometry x="209" y="148" width="80" height="80" as="geometry" />
        </mxCell>
        <mxCell id="P8y5TRSWgkhWpiHVSNIU-8" value="SVM" style="ellipse;whiteSpace=wrap;html=1;aspect=fixed;fontSize=24;opacity=40;fillColor=#f8cecc;strokeColor=#b85450;" vertex="1" parent="1">
          <mxGeometry x="300" y="148" width="80" height="80" as="geometry" />
        </mxCell>
        <mxCell id="P8y5TRSWgkhWpiHVSNIU-9" value="NB" style="ellipse;whiteSpace=wrap;html=1;aspect=fixed;fontSize=24;opacity=40;fillColor=#f8cecc;strokeColor=#b85450;" vertex="1" parent="1">
          <mxGeometry x="391" y="148" width="80" height="80" as="geometry" />
        </mxCell>
        <mxCell id="P8y5TRSWgkhWpiHVSNIU-10" value="" style="rounded=1;whiteSpace=wrap;html=1;fontSize=18;fillColor=#ffe6cc;strokeColor=#d79b00;opacity=40;" vertex="1" parent="1">
          <mxGeometry x="194" y="365" width="295" height="130" as="geometry" />
        </mxCell>
        <mxCell id="P8y5TRSWgkhWpiHVSNIU-12" value="ANN" style="ellipse;whiteSpace=wrap;html=1;aspect=fixed;fontSize=24;opacity=40;fillColor=#d5e8d4;strokeColor=#82b366;" vertex="1" parent="1">
          <mxGeometry x="300" y="376" width="80" height="80" as="geometry" />
        </mxCell>
        <mxCell id="P8y5TRSWgkhWpiHVSNIU-14" value="" style="endArrow=classic;html=1;rounded=0;fontSize=18;strokeWidth=3;entryX=0;entryY=0.5;entryDx=0;entryDy=0;" edge="1" parent="1" target="P8y5TRSWgkhWpiHVSNIU-10">
          <mxGeometry width="50" height="50" relative="1" as="geometry">
            <mxPoint x="131" y="364" as="sourcePoint" />
            <mxPoint x="231" y="309" as="targetPoint" />
          </mxGeometry>
        </mxCell>
        <mxCell id="P8y5TRSWgkhWpiHVSNIU-15" value="Profit or Loss Magnitude&amp;nbsp;" style="text;html=1;strokeColor=none;fillColor=none;align=center;verticalAlign=middle;whiteSpace=wrap;rounded=0;fontSize=17;fontStyle=1" vertex="1" parent="1">
          <mxGeometry x="192" y="335" width="308" height="30" as="geometry" />
        </mxCell>
        <mxCell id="P8y5TRSWgkhWpiHVSNIU-16" value="Ensemble Likelihood of Default" style="text;html=1;strokeColor=none;fillColor=none;align=center;verticalAlign=middle;whiteSpace=wrap;rounded=0;fontSize=17;fontStyle=1" vertex="1" parent="1">
          <mxGeometry x="194" y="105" width="308" height="30" as="geometry" />
        </mxCell>
        <mxCell id="P8y5TRSWgkhWpiHVSNIU-17" value="Target: Default Indicator" style="text;html=1;strokeColor=none;fillColor=none;align=center;verticalAlign=middle;whiteSpace=wrap;rounded=0;fontSize=17;fontStyle=0" vertex="1" parent="1">
          <mxGeometry x="187.5" y="233" width="308" height="30" as="geometry" />
        </mxCell>
        <mxCell id="P8y5TRSWgkhWpiHVSNIU-18" value="Target: Bounded Opportunity Bucket" style="text;html=1;strokeColor=none;fillColor=none;align=center;verticalAlign=middle;whiteSpace=wrap;rounded=0;fontSize=17;fontStyle=0" vertex="1" parent="1">
          <mxGeometry x="192" y="463" width="308" height="30" as="geometry" />
        </mxCell>
        <mxCell id="P8y5TRSWgkhWpiHVSNIU-19" value="Borrower" style="shape=umlActor;verticalLabelPosition=bottom;verticalAlign=top;outlineConnect=0;fontSize=17;strokeWidth=4;html=1;" vertex="1" parent="1">
          <mxGeometry x="789" y="433" width="30" height="60" as="geometry" />
        </mxCell>
        <mxCell id="P8y5TRSWgkhWpiHVSNIU-23" value="" style="endArrow=classic;html=1;rounded=0;fontSize=18;strokeWidth=3;" edge="1" parent="1" target="P8y5TRSWgkhWpiHVSNIU-24">
          <mxGeometry width="50" height="50" relative="1" as="geometry">
            <mxPoint x="801" y="418" as="sourcePoint" />
            <mxPoint x="963" y="470" as="targetPoint" />
          </mxGeometry>
        </mxCell>
        <mxCell id="P8y5TRSWgkhWpiHVSNIU-24" value="Requested Loan Amount" style="rounded=1;whiteSpace=wrap;html=1;strokeWidth=1;fontSize=17;fillColor=#f8cecc;strokeColor=#b85450;fontStyle=0" vertex="1" parent="1">
          <mxGeometry x="741" y="288" width="120" height="60" as="geometry" />
        </mxCell>
        <mxCell id="P8y5TRSWgkhWpiHVSNIU-25" value="" style="endArrow=classic;html=1;rounded=0;fontSize=18;strokeWidth=3;entryX=0;entryY=0;entryDx=0;entryDy=0;" edge="1" parent="1" target="P8y5TRSWgkhWpiHVSNIU-27">
          <mxGeometry width="50" height="50" relative="1" as="geometry">
            <mxPoint x="489" y="209" as="sourcePoint" />
            <mxPoint x="597" y="285" as="targetPoint" />
          </mxGeometry>
        </mxCell>
        <mxCell id="P8y5TRSWgkhWpiHVSNIU-26" value="" style="endArrow=classic;html=1;rounded=0;fontSize=18;strokeWidth=3;exitX=1;exitY=0.5;exitDx=0;exitDy=0;" edge="1" parent="1" source="P8y5TRSWgkhWpiHVSNIU-10" target="P8y5TRSWgkhWpiHVSNIU-27">
          <mxGeometry width="50" height="50" relative="1" as="geometry">
            <mxPoint x="493" y="434" as="sourcePoint" />
            <mxPoint x="597" y="521" as="targetPoint" />
          </mxGeometry>
        </mxCell>
        <mxCell id="P8y5TRSWgkhWpiHVSNIU-27" value="&lt;span&gt;Risk&lt;br&gt;Score&lt;br&gt;&lt;/span&gt;" style="ellipse;whiteSpace=wrap;html=1;aspect=fixed;strokeWidth=1;fontSize=17;fillColor=#bac8d3;strokeColor=#23445d;fontStyle=0" vertex="1" parent="1">
          <mxGeometry x="578" y="275" width="80" height="80" as="geometry" />
        </mxCell>
        <mxCell id="P8y5TRSWgkhWpiHVSNIU-28" value="" style="endArrow=classic;html=1;rounded=0;strokeWidth=3;fontSize=17;" edge="1" parent="1">
          <mxGeometry width="50" height="50" relative="1" as="geometry">
            <mxPoint x="658" y="320" as="sourcePoint" />
            <mxPoint x="738" y="320" as="targetPoint" />
          </mxGeometry>
        </mxCell>
        <mxCell id="P8y5TRSWgkhWpiHVSNIU-29" value="" style="endArrow=classic;html=1;rounded=0;strokeWidth=3;fontSize=17;" edge="1" parent="1">
          <mxGeometry width="50" height="50" relative="1" as="geometry">
            <mxPoint x="861" y="322" as="sourcePoint" />
            <mxPoint x="941" y="322" as="targetPoint" />
          </mxGeometry>
        </mxCell>
        <mxCell id="P8y5TRSWgkhWpiHVSNIU-30" value="Principal&amp;nbsp; Disbursed" style="rounded=1;whiteSpace=wrap;html=1;strokeWidth=1;fontSize=17;fillColor=#b1ddf0;strokeColor=#10739e;fontStyle=0" vertex="1" parent="1">
          <mxGeometry x="944" y="288" width="120" height="60" as="geometry" />
        </mxCell>
        <mxCell id="P8y5TRSWgkhWpiHVSNIU-31" value="&lt;h1 style=&quot;font-size: 40px;&quot;&gt;Loan Disbursement Ensemble Model&lt;/h1&gt;" style="text;html=1;strokeColor=none;fillColor=none;spacing=5;spacingTop=-20;whiteSpace=wrap;overflow=hidden;rounded=0;strokeWidth=1;fontSize=40;align=center;" vertex="1" parent="1">
          <mxGeometry x="216" y="16" width="721" height="66" as="geometry" />
        </mxCell>
        <mxCell id="P8y5TRSWgkhWpiHVSNIU-32" value="Input" style="text;html=1;strokeColor=none;fillColor=none;align=center;verticalAlign=middle;whiteSpace=wrap;rounded=0;fontSize=23;fontStyle=1" vertex="1" parent="1">
          <mxGeometry x="16" y="187" width="120" height="30" as="geometry" />
        </mxCell>
        <mxCell id="P8y5TRSWgkhWpiHVSNIU-33" value="Output" style="text;html=1;strokeColor=none;fillColor=none;align=center;verticalAlign=middle;whiteSpace=wrap;rounded=0;fontSize=23;fontStyle=1" vertex="1" parent="1">
          <mxGeometry x="944" y="241" width="120" height="30" as="geometry" />
        </mxCell>
      </root>
    </mxGraphModel>
  </diagram>
</mxfile>
